<?xml version="1.0" encoding="utf-8"?>
<!-- Generator: Adobe Illustrator 16.0.0, SVG Export Plug-In . SVG Version: 6.00 Build 0)  -->
<!DOCTYPE svg PUBLIC "-//W3C//DTD SVG 1.1//EN" "http://www.w3.org/Graphics/SVG/1.1/DTD/svg11.dtd">
<svg version="1.1" id="_x30_" xmlns="http://www.w3.org/2000/svg" xmlns:xlink="http://www.w3.org/1999/xlink" x="0px" y="0px"
	 width="2921.416016px" height="6958.60791px" viewBox="0 0 2921.416016 6958.60791"
	 enable-background="new 0 0 2921.416016 6958.60791" xml:space="preserve">
<g id="LWPOLYLINE">
	
		<path fill="none" stroke="#000000" stroke-width="0.708661" stroke-linecap="round" stroke-linejoin="round" stroke-miterlimit="10" d="
		M429.657715,1685.57373L213.204102,1512.58252l-25.360352,92.459473
		c-11.507813,686.904785-62.406738,1372.584473-152.446289,2053.660645l25.320313,66.674805l164.601563,103.651367
		l22.049316-67.299805c64.694336-607.323242,105.996582-1216.911133,123.814453-1827.410156
		C371.183105,1934.319336,429.657715,1685.57373,429.657715,1685.57373z"/>
</g>
<g id="LWPOLYLINE_1_">
	
		<polygon fill="none" stroke="#000000" stroke-width="0.708661" stroke-linecap="round" stroke-linejoin="round" stroke-miterlimit="10" points="
		749.976563,123.229492 523.588867,35.199219 475.734863,123.229492 474.927246,6836.853027 524.436523,6916.687012 
		642.638184,6916.687012 694.772461,6834.88623 693.197754,388.459473 719.850586,243.91748 	"/>
</g>
<g id="LWPOLYLINE_2_">
	
		<polygon fill="none" stroke="#000000" stroke-width="0.708661" stroke-linecap="round" stroke-linejoin="round" stroke-miterlimit="10" points="
		773.479492,1682.707031 931.740723,1454.122559 1028.256348,2091.946777 1087.740234,2623.638672 904.562988,2777.223145 
		860.54541,2305.865723 	"/>
</g>
<g id="LWPOLYLINE_3_">
	
		<polygon fill="none" stroke="#000000" stroke-width="0.708661" stroke-linecap="round" stroke-linejoin="round" stroke-miterlimit="10" points="
		1370.70459,219.566406 2563.257813,219.566406 2613.978516,310.316895 2613.251953,2211.366699 2564.873047,2299.782715 
		1370.220215,2302.392578 1324.708496,2217.431152 1325.838867,306.14502 	"/>
</g>
<g id="LWPOLYLINE_4_">
	
		<polygon fill="none" stroke="#000000" stroke-width="0.708661" stroke-linecap="round" stroke-linejoin="round" stroke-miterlimit="10" points="
		1535.791016,632.426758 2393.890625,632.426758 2398.716797,1064.528809 1540.616211,1064.528809 	"/>
</g>
<g id="LWPOLYLINE_5_">
	
		<rect x="1537.567383" y="1489.775879" fill="none" stroke="#000000" stroke-width="0.708661" stroke-linecap="round" stroke-linejoin="round" stroke-miterlimit="10" width="858.100586" height="397.422363"/>
</g>
<g id="LWPOLYLINE_6_">
	
		<rect x="1302.780273" y="3102.898438" fill="none" stroke="#000000" stroke-width="0.708661" stroke-linecap="round" stroke-linejoin="round" stroke-miterlimit="10" width="280.460938" height="665.409668"/>
</g>
<g id="LWPOLYLINE_7_">
	
		<rect x="1787.255859" y="3101.152344" fill="none" stroke="#000000" stroke-width="0.708661" stroke-linecap="round" stroke-linejoin="round" stroke-miterlimit="10" width="336.310547" height="668.791504"/>
</g>
<g id="LWPOLYLINE_8_">
	
		<rect x="2326.976563" y="3101.391602" fill="none" stroke="#000000" stroke-width="0.708661" stroke-linecap="round" stroke-linejoin="round" stroke-miterlimit="10" width="330.292969" height="668.606934"/>
</g>
<g id="LWPOLYLINE_9_">
	
		<polygon fill="none" stroke="#000000" stroke-width="0.708661" stroke-linecap="round" stroke-linejoin="round" stroke-miterlimit="10" points="
		1130.910156,2689.578613 2827.40332,2688.935547 2875.216797,2776.06543 2875.297852,4093.101074 2827.363281,4181.774902 
		1131.677246,4181.554199 1086.649902,4093.340332 1086.206055,2777.259766 	"/>
</g>
<g id="LWPOLYLINE_10_">
	
		<path fill="none" stroke="#000000" stroke-width="0.708661" stroke-linecap="round" stroke-linejoin="round" stroke-miterlimit="10" d="
		M1262.760742,4504.987793l1240.608398-0.037109l53.265625,38.373047l67.601563,197.103516
		c-84.599609,450.063477-237.205078,884.628906-452.573242,1288.770508
		c188.049805,186.540039,413.435547,331.185547,661.353516,424.438477l30.408203,29.478516l-15.0625,80.624023
		l-108.105469,266.166992l-31.862305,64.469727c-287.345703-140.015625-539.150391-343.445313-736.425781-594.948242
		c-208.598633,237.74707-471.391602,421.753906-766.148438,536.451172c0.000488,0-65.42041-73.621094-65.42041-73.621094
		l-89.165527-345.927734l20.716309-29.22168c259.946777-81.991211,497.474121-222.847656,694.104004-411.610352
		c-147.219727-325.106445-251.529297-667.980469-310.302734-1019.993164H1260.37793l-33.396484-126.183594l-1.050293-227.977539
		L1262.760742,4504.987793z"/>
</g>
<g id="LWPOLYLINE_11_">
	
		<path fill="none" stroke="#000000" stroke-width="0.708661" stroke-linecap="round" stroke-linejoin="round" stroke-miterlimit="10" d="
		M1668.368164,4954.052246l643.342773,0.147461c-86.314453,276.830078-204.34375,542.75293-351.736328,792.474609
		C1829.364258,5495.98584,1731.366211,5229.615723,1668.368164,4954.052246z"/>
</g>
</svg>
