<?xml version="1.0" encoding="utf-8"?>
<!-- Generator: Adobe Illustrator 16.0.0, SVG Export Plug-In . SVG Version: 6.00 Build 0)  -->
<!DOCTYPE svg PUBLIC "-//W3C//DTD SVG 1.1//EN" "http://www.w3.org/Graphics/SVG/1.1/DTD/svg11.dtd">
<svg version="1.1" id="標線框線" xmlns="http://www.w3.org/2000/svg" xmlns:xlink="http://www.w3.org/1999/xlink" x="0px"
	 y="0px" width="4979.000977px" height="5410.348145px" viewBox="0 0 4979.000977 5410.348145"
	 enable-background="new 0 0 4979.000977 5410.348145" xml:space="preserve">
<g id="LWPOLYLINE">
	
		<path fill="none" stroke="#000000" stroke-width="0.708661" stroke-linecap="round" stroke-linejoin="round" stroke-miterlimit="10" d="
		M1544.723145,932.366699c-65.725586-65.725586-113.586914-147.139648-139.051758-236.533203
		c-82.625977-290.055664,85.529297-592.173828,375.584961-674.799805s592.173828,85.529297,674.799805,375.584961
		c82.625488,290.055664-85.529297,592.173828-375.584961,674.799316v639.725586h1535.455566v535.748047H2080.471191v750.047363
		h1497.328613l651.483398,837.033203l562.477539-209.813477l187.240234,501.963867l-930.949219,347.258789l-732.165039-940.694336
		H1544.723145V2273.551758c-707.961426,171.316895-1142.998047,884.111816-971.681152,1592.07373
		c171.316406,707.960938,884.111816,1142.99707,1592.073242,971.680664
		c410.375977-99.304688,748.399414-389.085938,909.238281-779.47168l362.463867,465.697266
		c-279.704102,457.041992-743.413086,770.773438-1271.702148,860.395508
		C1155.263672,5555.243652,197.737793,4875.477051,26.420898,3865.625488
		c-171.316406-1009.851563,508.450684-1967.37793,1518.302246-2138.694336V932.366699z"/>
</g>
</svg>
