<?xml version="1.0" encoding="utf-8"?>
<!-- Generator: Adobe Illustrator 16.0.0, SVG Export Plug-In . SVG Version: 6.00 Build 0)  -->
<!DOCTYPE svg PUBLIC "-//W3C//DTD SVG 1.1//EN" "http://www.w3.org/Graphics/SVG/1.1/DTD/svg11.dtd">
<svg version="1.1" id="_x30_-標線W" xmlns="http://www.w3.org/2000/svg" xmlns:xlink="http://www.w3.org/1999/xlink" x="0px"
	 y="0px" width="2736.316406px" height="4949.709961px" viewBox="0 0 2736.316406 4949.709961"
	 enable-background="new 0 0 2736.316406 4949.709961" xml:space="preserve">
<g id="LWPOLYLINE">
	
		<polygon fill="none" stroke="#000000" stroke-width="0.708661" stroke-linecap="round" stroke-linejoin="round" stroke-miterlimit="10" points="
		1441.589844,2117.156738 1036.705078,2468.02002 1171.564453,3204.713867 1343.087891,3092.527344 1260.673828,2642.326172 
		1597.764648,2456.727539 1205.06543,3913.289063 1372.256836,4102.180664 1890.916016,2178.419922 1458.792969,817.073242 
		1230.606934,1094.347656 798.474609,1976.883301 912.474121,2262.396484 1296.465332,1572.176758 	"/>
</g>
<g id="SPLINE">
	
		<path fill="none" stroke="#000000" stroke-width="0.708661" stroke-linecap="round" stroke-linejoin="round" stroke-miterlimit="10" d="
		M1641.479492,3824.25293c-7.073242-729.605469,169.506836-1097.273438,529.741211-1103.003906
		c360.235352-5.730469,548.421875,356.134766,564.558594,1085.595703
		c11.606445,729.533203-164.974609,1097.201172-529.741211,1103.003906S1653.085938,4553.786133,1641.479492,3824.25293z"/>
</g>
<g id="SPLINE_1_">
	
		<path fill="none" stroke="#000000" stroke-width="0.708661" stroke-linecap="round" stroke-linejoin="round" stroke-miterlimit="10" d="
		M2598.992188,3809.020508c-12.854492-492.354492-153.558594-736.396484-422.113281-732.124023
		s-401.424805,252.666016-398.611328,745.180664c7.833984,492.435547,148.538086,736.476563,422.113281,732.124023
		C2473.955078,4549.849609,2606.826172,4301.456055,2598.992188,3809.020508z"/>
</g>
<g id="SPLINE_2_">
	
		<path fill="none" stroke="#000000" stroke-width="0.708661" stroke-linecap="round" stroke-linejoin="round" stroke-miterlimit="10" d="
		M1094.504395,3846.637695c11.605957,729.533203-164.974609,1097.201172-529.741211,1103.003906
		S11.810547,4593.580078,0.20459,3864.045898c-7.07373-729.604492,169.506348-1097.273438,529.741699-1103.003906
		C890.181152,2755.311523,1078.367188,3117.176758,1094.504395,3846.637695z"/>
</g>
<g id="SPLINE_3_">
	
		<path fill="none" stroke="#000000" stroke-width="0.708661" stroke-linecap="round" stroke-linejoin="round" stroke-miterlimit="10" d="
		M136.992188,3861.870117c7.833984,492.435547,148.538086,736.476563,422.113281,732.125
		c273.574707-4.352539,406.445313-252.746094,398.611816-745.181641
		c-12.854492-492.354492-153.559082-736.396484-422.113281-732.124023
		C267.049316,3120.961914,134.178711,3369.355469,136.992188,3861.870117z"/>
</g>
<g id="SPLINE_4_">
	
		<path fill="none" stroke="#000000" stroke-width="0.708661" stroke-linecap="round" stroke-linejoin="round" stroke-miterlimit="10" d="
		M932.472656,414.979492c36.33252-0.578125,72.665039-1.155762,108.997559-1.733887
		c0.390137,167.241699,31.539551,292.980957,93.44873,377.217285s122.462891,83.272949,181.661133-2.890137
		c59.198242-86.162598,86.332031-212.829102,81.402344-379.998535c36.391602-0.579102,72.782227-1.158203,109.173828-1.736816
		c-10.34082-273.47998-108.326172-408.743164-293.958008-405.790039S933.932617,141.3125,932.296875,414.982422"/>
</g>
</svg>
