<?xml version="1.0" encoding="utf-8"?>
<!-- Generator: Adobe Illustrator 16.0.0, SVG Export Plug-In . SVG Version: 6.00 Build 0)  -->
<!DOCTYPE svg PUBLIC "-//W3C//DTD SVG 1.1//EN" "http://www.w3.org/Graphics/SVG/1.1/DTD/svg11.dtd">
<svg version="1.1" id="_x30_" xmlns="http://www.w3.org/2000/svg" xmlns:xlink="http://www.w3.org/1999/xlink" x="0px" y="0px"
	 width="1817.63623px" height="14073.18457px" viewBox="0 0 1817.63623 14073.18457"
	 enable-background="new 0 0 1817.63623 14073.18457" xml:space="preserve">
<g id="LWPOLYLINE">
	
		<path fill="none" stroke="#000000" stroke-width="0.708661" stroke-linecap="round" stroke-linejoin="round" stroke-miterlimit="10" d="
		M790.98584,30.274414l183.660156-5.825195v685.276367c77.921875,619.380371,343.84375,1199.987305,761.924805,1663.573242
		l-128.779297,195.529297c-344.452148-369.609375-592.311523-818.552734-721.569336-1306.96875
		c-74.158691,502.674805-327.58252,961.580566-713.529297,1292.075684L52.415527,2359.935547
		C496.361328,1921.717773,759.583496,1332.781738,789.96875,709.725098
		C789.96875,709.725586,790.98584,30.274414,790.98584,30.274414z"/>
</g>
<g id="LWPOLYLINE_1_">
	
		<path fill="none" stroke="#000000" stroke-width="0.708661" stroke-linecap="round" stroke-linejoin="round" stroke-miterlimit="10" d="
		M469.459961,3547.095215l184.878906,123.822754c-135.432129,258.823242-310.19873,495.068848-518.064941,700.308594
		l-83.296875-278.09375C225.299316,3939.292969,366.658691,3753.960938,469.459961,3547.095215z"/>
</g>
<g id="LWPOLYLINE_2_">
	
		<path fill="none" stroke="#000000" stroke-width="0.708661" stroke-linecap="round" stroke-linejoin="round" stroke-miterlimit="10" d="
		M526.384277,4091.019043c-106.15918,303.106934-267.786133,583.815918-476.629883,827.799316l62.895508,256.260254
		c80.226074-72.869629,150.44043-156.05127,208.808105-247.37207l-7.701172,1187.300293h173.940918V4639.360352
		c82.770508-143.670898,152.623535-294.405273,208.737793-450.429199L526.384277,4091.019043z"/>
</g>
<g id="LWPOLYLINE_3_">
	
		<rect x="723.350098" y="3646.86377" fill="none" stroke="#000000" stroke-width="0.708661" stroke-linecap="round" stroke-linejoin="round" stroke-miterlimit="10" width="960.033203" height="258.032715"/>
</g>
<g id="LWPOLYLINE_4_">
	
		<path fill="none" stroke="#000000" stroke-width="0.708661" stroke-linecap="round" stroke-linejoin="round" stroke-miterlimit="10" d="
		M660.299316,4383.911133h1055.324219v236.114746h-261.243164v1215.209473
		c-1.863281,116.821289-70.842773,222.123047-177.194336,270.499023H976.878418l-47.776367-275.04541h213.856445
		c83.813477-0.76709,151.588867-68.484863,152.427734-152.297363l-14.732422-1058.365723H660.299316V4383.911133z"/>
</g>
<g id="LWPOLYLINE_5_">
	
		<polygon fill="none" stroke="#000000" stroke-width="0.708661" stroke-linecap="round" stroke-linejoin="round" stroke-miterlimit="10" points="
		104.958984,7233.823242 238.365234,7075.630859 531.567383,7437.422852 395.228516,7632.234375 	"/>
</g>
<g id="LWPOLYLINE_6_">
	
		<polygon fill="none" stroke="#000000" stroke-width="0.708661" stroke-linecap="round" stroke-linejoin="round" stroke-miterlimit="10" points="
		686.763184,7212.742188 840.226074,7068.256836 1031.996582,7271.941406 890.915039,7404.771484 	"/>
</g>
<g id="LWPOLYLINE_7_">
	
		<polygon fill="none" stroke="#000000" stroke-width="0.708661" stroke-linecap="round" stroke-linejoin="round" stroke-miterlimit="10" points="
		1228.618652,7271.647461 1414.544434,7069.663086 1582.984863,7202.335938 1396.27002,7414.749023 	"/>
</g>
<g id="LWPOLYLINE_8_">
	
		<polygon fill="none" stroke="#000000" stroke-width="0.708661" stroke-linecap="round" stroke-linejoin="round" stroke-miterlimit="10" points="
		654.63916,9238.412109 654.63916,7828.859375 951.368652,7828.859375 999.628418,7665.289063 595.947754,7665.289063 
		595.947754,7450.674805 1724.83252,7450.674805 1724.83252,7665.289063 1198.76416,7665.289063 1149.383301,7828.859375 
		1637.862793,7828.859375 1637.862793,9238.412109 	"/>
</g>
<g id="LWPOLYLINE_9_">
	
		<rect x="827.365234" y="8037.134766" fill="none" stroke="#000000" stroke-width="0.708661" stroke-linecap="round" stroke-linejoin="round" stroke-miterlimit="10" width="637.611816" height="167.404297"/>
</g>
<g id="LWPOLYLINE_10_">
	
		<rect x="830.580078" y="8431.173828" fill="none" stroke="#000000" stroke-width="0.708661" stroke-linecap="round" stroke-linejoin="round" stroke-miterlimit="10" width="626.752441" height="170.503906"/>
</g>
<g id="LWPOLYLINE_11_">
	
		<rect x="828.753418" y="8834.967773" fill="none" stroke="#000000" stroke-width="0.708661" stroke-linecap="round" stroke-linejoin="round" stroke-miterlimit="10" width="635.717773" height="183.701172"/>
</g>
<g id="LWPOLYLINE_12_">
	
		<path fill="none" stroke="#000000" stroke-width="0.708661" stroke-linecap="round" stroke-linejoin="round" stroke-miterlimit="10" d="
		M51.330566,7692.59082l492.458496-4.701172l2.319336,242.966797l-213.225586,485.290039h219.084473v289.820313
		L444.70459,9105.569336c107.512695,181.458984,302.783691,292.734375,513.701172,292.734375l781.05957-21.601563
		l-41.674805,243.423828l-703.870117,6.954102c-252.493652,0-489.665527-121.111328-637.713867-325.646484l-170.621582,373.411133
		L38.678223,9481.817383c151.211914-250.78418,264.442383-522.583008,336.004395-806.548828H87.547363v-242.950195
		l249.644043-495.976563H53.657227L51.330566,7692.59082z"/>
</g>
<g id="LWPOLYLINE_13_">
	
		<path fill="none" stroke="#000000" stroke-width="0.708661" stroke-linecap="round" stroke-linejoin="round" stroke-miterlimit="10" d="
		M742.733398,11573.884766l136.93457,64.069336c86.563965,33.802734,151.143066,107.779297,172.945801,198.115234
		c17.683594,288.59375,85.688477,571.873047,200.941406,837.044922l-73.288086,33.146484l10.533203,86.842773l62.505859,48.724609
		c75.62207,40.53418,166.325195,41.354492,242.667969,2.196289c-30.219727-42.646484-42.202148-95.576172-33.296875-147.080078
		c8.736328-32.289063,31.139648-59.150391,61.335938-73.539063c38.729492-11.035156,80.350586,1.236328,106.899414,31.516602
		c17.371094,26.378906,25.392578,57.821289,22.783203,89.297852c-11.961914,25.226563-28.014648,48.300781-47.507813,68.287109
		c-21.791992,29.724609-15.361328,71.488281,14.363281,93.279297c2.463867,1.806641,5.048828,3.442383,7.737305,4.894531
		l65.546875,26.865234c49.120117,24.180664,84.288086,69.728516,95.25293,123.369141l-1.298828,340.25
		c-2.307617,18.123047-16.579102,32.394531-34.703125,34.703125c-21.962891,2.796875-42.035156-12.740234-44.833008-34.703125
		v-192.994141c3.356445-18.041992-8.547852-35.387695-26.588867-38.744141
		c-18.041992-3.356445-35.387695,8.548828-38.744141,26.589844c-0.74707,4.016602-0.74707,8.136719,0,12.154297
		c-24.797852,104.65625,1.318359,214.875,70.439453,297.27832l-70.439453,74.518555l-3.817383,115.094727
		c-6.186523,58.264648,5.75,117.018555,34.181641,168.25l-5.583008,127.293945
		c-0.125977,1.689453-0.380859,3.367188-0.762695,5.019531c-4.135742,17.881836-21.984375,29.025391-39.867188,24.890625
		c-17.882813-4.135742-29.027344-21.984375-24.891602-39.867188l6.584961-105.501953
		c-41.421875-50.154297-66.919922-111.539063-73.224609-176.282227v-95.34082
		c-4.226563-30.59668-32.455078-51.974609-63.052734-47.749023c-24.813477,3.426758-44.321289,22.935547-47.748047,47.749023
		v142.845703l24.005859,145.450195c2.109375,47.375977-5.904297,94.65918-23.507813,138.694336
		c-3.412109,5.728516-9.081055,9.753906-15.614258,11.087891c-12.819336,2.617188-25.332031-5.65332-27.948242-18.472656
		c-4.920898-43.257813-4.920898-86.933594,0-130.191406c-31.572266-62.291016-49.480469-130.605469-52.527344-200.375
		l0.395508-177.492188l-141.19043-39.566406c56.9375-54.847656,98.244141-123.867188,119.675781-199.964844
		c25.172852-101.501953,37.368164-205.787109,36.294922-310.359375c-72.695313,1.064453-142.46582-28.597656-192.139648-81.685547
		c-13.740234-27.115234-13.740234-59.154297,0-86.268555l-61.15918-73.688477
		c-92.022461-174.28125-147.448242-365.53418-162.874023-562.013672l-3.487305-53.724609
		c-0.425781-24.628906-20.736328-44.248047-45.365234-43.822266c-24.172852,0.417969-43.611328,20.019531-43.827637,44.194336
		l103.599121,580.689453l-52.028809,57.759766l53.663574,172.90625c28.030273,114.737305,37.806641,233.174805,28.969727,350.956055
		v556.269531h-70.610352v81.408203c13.941406,29.055664,30.293945,56.891602,48.886719,83.21582
		c-1.946289,5.642578-4.852539,10.907227-8.589844,15.561523c-17.930664,22.324219-50.563477,25.886719-72.887695,7.957031
		l-65.182129-81.408203v-132.060547h-72.423828l8.260254-570.605469l-54.908691-191.330078l-8.950684-44.390625
		c1.650879-17.425781-11.136719-32.889648-28.562012-34.541016c-17.425293-1.650391-32.88916,11.137695-34.540039,28.5625
		c-0.274902,2.904297-0.147949,5.833008,0.378418,8.703125l-2.359375,43.029297
		c-15.855957,141.933594-17.305664,285.107422-4.32666,427.333984l0.839355,553.229492l-184.675781-34.916016l-78.905273-23.606445
		c-0.810059-0.728516-1.580566-1.499023-2.308594-2.308594c-11.350586-12.625977-10.316895-32.0625,2.308594-43.413086
		l45.760254-23.775391l-36.654785-577.733398v-587.744141l-75.970215-10.881836l70.198242-654.417969l-43.244629-22.463867
		l-114.476074,298.214844l24.37207,342.790039l-7.07959,52.229492c-3.010254,16.487305-13.650879,30.575195-28.686523,37.980469
		c-26.227539,12.917969-57.961914,2.128906-70.879883-24.099609l-28.71875-56.486328
		c-37.495605-101.333984-52.657715-209.574219-44.448242-317.310547c19.756836-145.439453,49.32373-289.375977,88.499023-430.826172
		c18.910645-119.917969,96.694336-222.363281,207.125-272.792969l164.788574-69.685547
		c35.167969-13.029297,55.398438-49.939453,47.462891-86.59375l-24.749512-86.480469l-0.302734-79.120117H374.931641
		c-6.272949-3.536133-11.458496-8.72168-14.995117-14.995117c-10.703613-18.984375-3.990234-43.051758,14.995117-53.755859
		h93.200195l70.769531-40.068359l27.256348-47.302734l37.991211-20.165039h93.789063
		c22.342773,1.543945,44.340332,6.338867,65.297852,14.234375c6.374023,10.290039,10.290527,21.911133,11.446289,33.959961
		c9.887207,17.824219,18.342773,36.405273,25.285645,55.569336l77.341797,2.72168
		c9.618164,1.359375,18.375977,6.27832,24.541504,13.78418c11.255859,16.976563,11.255859,39.041016,0,56.017578h-96.951172
		c-10.143066,57.898438-32.785156,112.890625-66.350098,161.145508
		C725.980957,11529.390625,727.661133,11555.401367,742.733398,11573.884766z"/>
</g>
</svg>
