<?xml version="1.0" encoding="utf-8"?>
<!-- Generator: Adobe Illustrator 16.0.0, SVG Export Plug-In . SVG Version: 6.00 Build 0)  -->
<!DOCTYPE svg PUBLIC "-//W3C//DTD SVG 1.1//EN" "http://www.w3.org/Graphics/SVG/1.1/DTD/svg11.dtd">
<svg version="1.1" id="_x30_" xmlns="http://www.w3.org/2000/svg" xmlns:xlink="http://www.w3.org/1999/xlink" x="0px" y="0px"
	 width="2496.685059px" height="6935.359375px" viewBox="0 0 2496.685059 6935.359375"
	 enable-background="new 0 0 2496.685059 6935.359375" xml:space="preserve">
<g id="LINE">
	
		<line fill="none" stroke="#000000" stroke-width="0.708661" stroke-linecap="round" stroke-linejoin="round" stroke-miterlimit="10" x1="1538.656738" y1="6734.041016" x2="1538.656738" y2="6734.041016"/>
</g>
<g id="LINE_1_">
	
		<line fill="none" stroke="#000000" stroke-width="0.708661" stroke-linecap="round" stroke-linejoin="round" stroke-miterlimit="10" x1="1694.020996" y1="3237.735352" x2="1694.020996" y2="3237.735352"/>
</g>
<g id="LINE_2_">
	
		<line fill="none" stroke="#000000" stroke-width="0.708661" stroke-linecap="round" stroke-linejoin="round" stroke-miterlimit="10" x1="802.663574" y1="3237.735352" x2="802.663574" y2="3237.735352"/>
</g>
<g id="ELLIPSE">
	
		<path fill="none" stroke="#000000" stroke-width="0.708661" stroke-linecap="round" stroke-linejoin="round" stroke-miterlimit="10" d="
		M1601.932129,3460.28418c0-207.591797-158.307617-375.878418-353.589844-375.878418s-353.589844,168.286621-353.589844,375.878418
		s158.307617,375.87793,353.589844,375.87793S1601.932129,3667.875977,1601.932129,3460.28418"/>
</g>
<g id="SPLINE">
	
		<path fill="none" stroke="#000000" stroke-width="0.708661" stroke-linecap="round" stroke-linejoin="round" stroke-miterlimit="10" d="
		M1478.321777,283.90918c-153.319336,0-306.63916,0-459.958984,0c-38.302246,0-70.995117,14.395508-98.079102,43.186523
		c-27.083496,28.791016-40.625488,63.544922-40.625488,104.26123c0,68.50293,0,137.005859,0,205.508789
		c0,39.319336,18.494141,58.979004,55.481934,58.979004c208.80127,0,417.602539,0,626.404297,0
		c36.988281,0,55.481445-19.659668,55.481445-58.979004c0-68.50293,0-137.005859,0-205.508789
		c0-40.716309-13.541016-75.470215-40.625-104.26123S1516.623535,283.90918,1478.321777,283.90918z"/>
</g>
<g id="SPLINE_1_">
	
		<path fill="none" stroke="#000000" stroke-width="0.708661" stroke-linecap="round" stroke-linejoin="round" stroke-miterlimit="10" d="
		M772.476074,942.880859c142.822754,106.433105,301.444824,159.649414,475.866211,159.649414
		c174.420898,0,333.042969-53.216309,475.866211-159.649414c132.53125-181.986328,163.625977-381.80957,93.283203-599.469727
		C1688.895996,114.470703,1499.179199,0,1248.342285,0S807.788574,114.470703,679.192383,343.411133
		C608.850098,561.071289,639.944336,760.894531,772.476074,942.880859z"/>
</g>
<g id="SPLINE_2_">
	
		<path fill="none" stroke="#000000" stroke-width="0.708661" stroke-linecap="round" stroke-linejoin="round" stroke-miterlimit="10" d="
		M0,4380.370117c267.554199-380.87793,535.108887-761.756836,802.663574-1142.634766c0,27.737793,0,55.475098,0,83.212891
		c-85.321777,308.398438,16.01416,511.614258,304.006836,609.647461
		c-182.145508,199.99707-364.291016,399.994141-546.436035,599.990234
		c88.752441,289.643555,177.504883,579.287109,266.257324,868.930664c0,253.541992,0,507.084961,0,760.626953
		C550.994141,5566.885742,275.49707,4973.62793,0,4380.370117z"/>
</g>
<g id="SPLINE_3_">
	
		<path fill="none" stroke="#000000" stroke-width="0.708661" stroke-linecap="round" stroke-linejoin="round" stroke-miterlimit="10" d="
		M2496.685059,4380.370117c-275.49707,593.257813-550.995117,1186.515625-826.492188,1779.773438
		c0-253.541992,0-507.084961,0-760.626953c88.75293-289.643555,177.504883-579.287109,266.256836-868.930664
		c-182.144531-199.996094-364.290039-399.993164-546.435547-599.990234
		c287.993164-98.033203,389.328125-301.249023,304.006836-609.647461c0-27.737793,0-55.475098,0-83.212891
		C1961.575684,3618.613281,2229.130371,3999.492188,2496.685059,4380.370117z"/>
</g>
<g id="SPLINE_4_">
	
		<path fill="none" stroke="#000000" stroke-width="0.708661" stroke-linecap="round" stroke-linejoin="round" stroke-miterlimit="10" d="
		M991.479004,6662.304688c0,182.036133,85.621094,273.054688,256.863281,273.054688s256.863281-91.018555,256.863281-273.054688
		c0-760.010742,0-1520.022461,0-2280.033203c0-182.037109-85.621094-273.054688-256.863281-273.054688
		s-256.863281,91.017578-256.863281,273.054688C991.479004,5142.282227,991.479004,5902.293945,991.479004,6662.304688z"/>
</g>
<g id="LWPOLYLINE">
	
		<polygon fill="none" stroke="#000000" stroke-width="0.708661" stroke-linecap="round" stroke-linejoin="round" stroke-miterlimit="10" points="
		2078.122559,1874.660156 1780.918457,2821.325195 1619.037598,2821.325195 1896.643066,1730.135742 	"/>
</g>
<g id="LWPOLYLINE_1_">
	
		<polygon fill="none" stroke="#000000" stroke-width="0.708661" stroke-linecap="round" stroke-linejoin="round" stroke-miterlimit="10" points="
		877.646484,2821.325195 715.765625,2821.325195 418.561523,1874.660156 600.041504,1730.135742 	"/>
</g>
<g id="SPLINE_5_">
	
		<path fill="none" stroke="#000000" stroke-width="0.708661" stroke-linecap="round" stroke-linejoin="round" stroke-miterlimit="10" d="
		M1248.342285,1190.999023c170.317383-45.014648,340.634766-90.029297,510.952148-135.043945
		c245.796875,195.744629,491.59375,391.489258,737.390625,587.234375
		c-129.933594,392.711914-259.866211,785.423828-389.799805,1178.135742c129.933594,0,259.866211,0,389.799805,0
		c0,111.078613,0,222.157227,0,333.235352c-319.144531,0-638.288086,0-957.432617,0
		c-80.061523-86.088867-177.03125-129.133789-290.910156-129.133789s-210.848633,43.044922-290.910156,129.133789
		c-319.144043,0-638.288086,0-957.432129,0c0-111.078125,0-222.156738,0-333.235352c129.933105,0,259.866211,0,389.799316,0
		C259.866211,2428.613281,129.933105,2035.901367,0,1643.189453c245.796875-195.745117,491.59375-391.489746,737.390625-587.234375
		C907.70752,1100.969727,1078.024902,1145.984375,1248.342285,1190.999023"/>
</g>
</svg>
