<?xml version="1.0" encoding="UTF-8" standalone="no"?>
<!-- Created with Inkscape (http://www.inkscape.org/) -->

<svg
   width="120"
   height="120"
   viewBox="0 0 120 120"
   version="1.1"
   id="svg5"
   inkscape:version="1.2 (dc2aedaf03, 2022-05-15)"
   sodipodi:docname="gray_three_way_arrow.svg"
   xmlns:inkscape="http://www.inkscape.org/namespaces/inkscape"
   xmlns:sodipodi="http://sodipodi.sourceforge.net/DTD/sodipodi-0.dtd"
   xmlns="http://www.w3.org/2000/svg"
   xmlns:svg="http://www.w3.org/2000/svg">
  <sodipodi:namedview
     id="namedview7"
     pagecolor="#505050"
     bordercolor="#ffffff"
     borderopacity="1"
     inkscape:showpageshadow="0"
     inkscape:pageopacity="0"
     inkscape:pagecheckerboard="1"
     inkscape:deskcolor="#505050"
     inkscape:document-units="px"
     showgrid="false"
     inkscape:zoom="4"
     inkscape:cx="106.5"
     inkscape:cy="48.875"
     inkscape:window-width="1920"
     inkscape:window-height="1051"
     inkscape:window-x="-9"
     inkscape:window-y="-9"
     inkscape:window-maximized="1"
     inkscape:current-layer="layer1" />
  <defs
     id="defs2" />
  <g
     inkscape:label="Layer 1"
     inkscape:groupmode="layer"
     id="layer1">
    <path
       style="fill:none;stroke:#000000;stroke-opacity:1;stroke-width:3;stroke-dasharray:none"
       d="M 60,5 35,35 H 50 V 65 C 50,65 47.072712,61.35536 45,60.5 41.914881,59.226843 35,60 35,60 V 45 L 15,70 35,95 V 80 c 0,0 7.200979,-0.840571 10,1 2.867467,1.88558 5,9 5,9 v 25 H 70 V 90 c 0,0 2.132533,-7.11442 5,-9 2.799021,-1.840571 10,-1 10,-1 V 95 L 105,70 85,45 v 15 c 0,0 -6.914881,-0.773157 -10,0.5 -2.072712,0.85536 -5,4.5 -5,4.5 V 35 h 15 z"
       id="path266"
       sodipodi:nodetypes="ccccacccccaccccacccccacccc" />
  </g>
</svg>
