<?xml version="1.0" encoding="UTF-8" standalone="no"?>
<!-- Created with Inkscape (http://www.inkscape.org/) -->

<svg
   width="120"
   height="120"
   viewBox="0 0 120 120"
   version="1.1"
   id="svg5"
   inkscape:version="1.2 (dc2aedaf03, 2022-05-15)"
   sodipodi:docname="left_right_arrow.svg"
   xmlns:inkscape="http://www.inkscape.org/namespaces/inkscape"
   xmlns:sodipodi="http://sodipodi.sourceforge.net/DTD/sodipodi-0.dtd"
   xmlns="http://www.w3.org/2000/svg"
   xmlns:svg="http://www.w3.org/2000/svg">
  <sodipodi:namedview
     id="namedview7"
     pagecolor="#505050"
     bordercolor="#ffffff"
     borderopacity="1"
     inkscape:showpageshadow="0"
     inkscape:pageopacity="0"
     inkscape:pagecheckerboard="1"
     inkscape:deskcolor="#505050"
     inkscape:document-units="px"
     showgrid="false"
     inkscape:zoom="4"
     inkscape:cx="106.5"
     inkscape:cy="49.375"
     inkscape:window-width="1920"
     inkscape:window-height="1051"
     inkscape:window-x="-9"
     inkscape:window-y="-9"
     inkscape:window-maximized="1"
     inkscape:current-layer="layer1" />
  <defs
     id="defs2" />
  <g
     inkscape:label="Layer 1"
     inkscape:groupmode="layer"
     id="layer1">
    <path
       style="fill:#ffffff"
       d="M 35,5 15,30 35,55 V 40 c 0,0 7.20098,-0.840571 10,1 2.86747,1.88558 5,9 5,9 v 65 H 70 L 69.25,50 c 0,0 2.71682,-7.136289 5.75,-9 2.85422,-1.753751 10,-1 10,-1 V 55 L 105,30 85,5 v 15 c 0,0 -10.31159,0.995293 -15,3 -3.7412,1.599691 -10,7 -10,7 0,0 -6.2588,-5.400309 -10,-7 -4.68841,-2.004707 -15,-3 -15,-3 z"
       id="path267"
       sodipodi:nodetypes="ccccaccccacccccacacc" />
  </g>
</svg>
